<?xml version="1.0" encoding="UTF-8"?>
<svg id="Ebene_2" data-name="Ebene 2" xmlns="http://www.w3.org/2000/svg" viewBox="0 0 7402 7295">
  <defs>
    <style>
      .cls-1 {
        fill: #fff;
      }

      .cls-2 {
        fill: #dea800;
      }

      .cls-3 {
        fill: #bbbcbe;
      }

      .cls-4 {
        fill: #1a171a;
      }
    </style>
  </defs>
  <g id="Ebene_1-2" data-name="Ebene 1">
    <g id="Ebene_1-3" data-name="Ebene_1">
      <g id="_510935104" data-name=" 510935104">
        <path class="cls-4" d="M7293,6089l74-1453-1700,147,9-44c67-311,105-648,112-1002,6-283-7-576-39-873-55-505-146-847-147-851l-17-62,257,96c-11-120-42-245-94-373-47-118-110-238-189-358-134-205-266-338-268-339l-56-57h323c-221-183-471-341-746-473-243-116-506-211-781-282-445-115-780-131-817-132-13,3-72,15-164,45-97,33-253,93-444,195-215,116-428,260-635,430-257,211-505,461-736,744-48,209-123,543-127,590,6,18,46,95,263,432,86,134,171,265,217,335,11-24,24-54,40-86,53-104,104-173,150-206l12-8,13,3c218,41,673,232,692,240l57,25-52,34c-321,208-510,385-613,574-105,194-121,401-113,652,7,215,49,598,115,1051l6,34-626,53-10-21c-21-44-58-110-112-176-51-62-107-112-166-148-76-45-158-68-243-68h-19c-90,4-181,49-272,135-70,66-140,158-208,272-116,193-184,380-187,388l-9,25,25,7c1,0,68,20,135,53,38,19,68,38,90,57,23,21,35,41,36,60,2,102-25,621-31,725v4l-152,441c-3,8-2,16,3,23l8,11,14-1,3133-259,137,496,218-528,20-2,3473-293,141-282Z"/>
        <path class="cls-1" d="M790,5980l-34,575,91-8,35-571-32-1-60,5ZM731,5064c175-33,379,186,379,186l65,205-19,316-88,79,79,67-34,570-91,219-616,52,89-225s41-701,50-824c9-122-150-105-150-105,0,0,141-125,285-133,142-7,128,70,135,72l-16,261,94-9s13-202,18-289c5-86-107-149-230-130s-358,165-358,165c0,0,232-443,408-477Z"/>
        <polygon class="cls-1" points="1195 5346 1574 5315 1494 5511 1435 6496 1508 6490 1664 6099 1630 6656 1113 6699 1195 6496 1253 5537 1197 5361 1195 5346"/>
        <path class="cls-1" d="M2016,5434l-20,340,75-4,22-339c-4-2-9-3-15-3-5,0-11,1-19,3l-43,3ZM1724,5301l545-46,58,188-57,959,56,197-304,25,41-690c-4-2-9-3-14-3-6,0-13,1-20,3l-41,3c-2,9-3,19-4,29-1,11-2,23-2,37l-38,628-302,25,80-202,58-962-54-178-2-13Z"/>
        <polygon class="cls-1" points="2420 5244 2966 5198 3028 5389 3010 5688 2767 5708 2787 5376 2721 5381 2660 6409 2725 6402 2757 5867 3000 5847 2970 6351 2887 6551 2339 6596 2421 6394 2479 5435 2423 5258 2420 5244"/>
        <polygon class="cls-1" points="3059 5191 3371 5165 3342 5631 3450 5413 3466 5157 3683 5139 3667 5410 3487 5734 3619 5958 3587 6492 3373 6510 3405 5978 3330 5854 3290 6517 2978 6543 3060 6341 3118 5382 3066 5216 3059 5191"/>
        <polygon class="cls-1" points="3698 5139 4009 5113 3979 5610 4056 5602 4086 5107 4398 5081 4315 5285 4258 6236 4317 6432 4004 6458 4046 5768 3969 5774 3928 6464 3617 6491 3699 6286 3757 5328 3701 5153 3698 5139"/>
        <path class="cls-1" d="M4701,5210l-20,340,76-3,22-340c-5-2-10-3-15-3-6,0-12,1-20,3l-43,3ZM4409,5077l545-46,59,188-58,959,56,197-304,25,41-690c-4-2-9-3-14-3-6,0-13,1-20,3l-41,3c-2,9-3,19-4,29-1,11-2,23-2,37l-38,628-302,25,80-202,58-962-54-178-2-13Z"/>
        <polygon class="cls-1" points="5048 5019 5330 4995 5344 5686 5510 5234 5619 5644 5712 4963 5996 4940 5904 5145 5773 6111 5809 6289 5810 6302 5527 6326 5539 6265 5463 5979 5353 6275 5354 6340 5070 6364 5130 6168 5114 5213 5050 5035 5048 5019"/>
        <polygon class="cls-1" points="6027 4941 6339 4915 6310 5381 6418 5164 6434 4907 6652 4889 6635 5160 6455 5484 6587 5708 6555 6243 6341 6260 6373 5728 6298 5604 6258 6267 5946 6293 6028 6091 6086 5132 6034 4966 6027 4941"/>
        <polygon class="cls-1" points="6753 4882 7180 4846 7149 5362 7040 5017 6913 5028 6890 5401 7187 5376 7150 6004 7063 6200 6601 6239 6633 5720 6753 6068 6885 6057 6892 6053 6915 5673 6633 5698 6669 5082 6750 4888 6753 4882"/>
        <path class="cls-1" d="M1818,1479l31,78,43-3-8,138-32-92-37-12,3-109ZM2150,1227S3007-59,4457,775l-175,7,295,202s-281-48-407,15c0,0,329,126,448,413,0,0-273-161-462-140,0,0,574,224,560,679,0,0-343-308-749-154,0,0,399,256,378,456,0,0-577-108-650,106,0,0-27,121,146,104,0,0,77,406-364,903,0,0-237-1160-1099-1195l679-2-797-408s-163-118-110-534ZM1637,2332c0-140,84-276,84-276,182-151,808-37,808-37-532-70-710,117-710,117,103-5,780,135,1009,345s168,789,168,789l-117-280c-369,79-635,616-728,808-94,191,60,1242,60,1242,94-290,589-663,589-663l29,676,142-13,221-308-34,291,1262-114c64-211,103-387,103-387,67,46,214,256,280,352l50-4c82-300,15-923,15-923-51,108-177,224-177,224,14-289-117-658-117-658-79,299-486,728-486,728,28-331-98-481-98-481-116,131-495,309-495,309,276-136,533-673,533-673,88,84,172,421,172,421,267-220,290-981,290-981,205,206,336,813,336,813,47-56,145-326,145-326,121,149,382,767,382,767,225-1868-289-2500-289-2500,89,5,263,106,263,106l-1-11c-56-364-729-819-729-819l295,28c-327-420-1607-515-1607-515-658,98-1718,1078-1751,1111s-116,418-116,446,186,361,186,361l33,35Z"/>
        <path class="cls-1" d="M3281,754c-85,40-216,180-287,242-38,33-73,65-106,95-80,70-154,130-239,166-86,37-185,51-317,29,0,0,135,124,302,120,33,0,67-6,102-18h0c5,32,20,87,69,133,79,74,200,79,200,79,0,0-87-4-145-82-43-58-56-124-60-159,91-46,191-120,284-191,111-85,212-166,274-190,126-49,511,28,511,28,0,0-238-322-588-252Z"/>
        <path class="cls-1" d="M2534,1492s4,3,12,10c4,3,9,7,15,11,2,2,6,5,9,7,4,3,7,5,11,8,16,11,35,23,58,36,12,6,24,13,37,19,14,7,28,13,43,19,15,7,31,12,47,17,17,5,34,10,52,13s37,5,56,5,39-2,58-7c19-4,38-11,55-21,18-10,34-23,49-37,30-30,58-63,82-98,25-35,47-72,66-110,5-9,10-19,15-28,5-10,9-19,14-29,10-18,19-37,30-55s23-35,38-49c4-3,8-7,12-10,5-3,9-5,14-8,9-4,19-8,28-9,3-1,5-1,8-2h7c5-1,9-1,14-1,9-1,18-2,26-2,9-1,18-1,26-2,9,0,17-1,25-1,33-2,63-3,89-3h38c11,1,22,1,31,1,10,0,18,1,26,1,7,0,13,1,18,1,11,1,16,1,16,1h-34c-8,1-16,1-26,1-9,0-20,1-31,1-6,0-12,0-18,1-6,0-13,0-19,1-7,0-14,0-21,1-7,0-14,1-21,1-4,1-8,1-12,1-3,0-7,1-11,1-8,1-16,1-24,2-8,0-16,1-25,2-8,1-17,2-25,3-9,0-18,1-27,2-5,1-9,1-14,2-2,0-4,0-6,1-3,0-5,0-7,1-8,2-17,4-24,9-4,2-8,4-12,7-3,3-7,6-10,9s-7,6-10,10c-3,3-6,7-9,11-5,8-10,16-15,25-20,34-37,73-57,111-20,39-42,77-67,113-26,36-54,70-85,100-16,15-34,29-53,39-19,11-40,18-60,23-21,4-42,6-62,6-20-1-40-3-58-7-38-8-72-20-102-34-30-13-56-28-78-42-12-7-22-14-32-20-4-4-9-7-13-10l-12-9c-15-12-26-22-34-28-8-7-11-11-11-11Z"/>
        <path class="cls-2" d="M5361,3037s-105-1233-645-1646c0,0,267,0,386,91,0,0-203-267-527-498-28-5-286-45-405,15,0,0,329,126,448,413,0,0-273-161-462-140,0,0,574,224,560,679,0,0-343-308-749-154,0,0,399,256,378,456,0,0-578-131-661,105,0,0-44,144,157,105,0,0,77,406-364,903,0,0-93-453-372-801,135,243,217,641,134,1294,0,0,686-411,777-1041,0,0,196,278,175,586,0,0,210-387,126-982,0,0,497,195,525,714,0,0,99-491-119-855,0,0,517,223,638,756Z"/>
        <path class="cls-2" d="M3344,4200s-82,236-268,279c7-45,24-162,23-297,2-184-29-407-162-529,0,0-245,386-633,520-18-41-25-91-26-144,4-284,185-674,185-674-289,196-368,499-366,775-1,352,127,663,127,663,0,0,76-462,674-709,0,0,50,291,51,571,0,100-24,291-26,299,0,0,441-428,430-684,1-25-2-49-9-70Z"/>
        <polygon class="cls-2" points="1408 6190 1388 6532 1535 6519 1604 6347 1588 6606 1176 6640 1235 6495 1254 6178 1408 6190"/>
        <polygon class="cls-2" points="1924 6217 1902 6581 1704 6598 1761 6452 1776 6211 1924 6217"/>
        <polygon class="cls-2" points="2236 6225 2225 6396 2269 6551 2064 6568 2085 6222 2236 6225"/>
        <polygon class="cls-2" points="3263 6212 3248 6468 3040 6485 3100 6339 3107 6217 3263 6212"/>
        <polygon class="cls-2" points="3560 6198 3545 6443 3416 6454 3431 6204 3560 6198"/>
        <polygon class="cls-2" points="3900 6176 3886 6414 3679 6433 3739 6284 3745 6187 3900 6176"/>
        <polygon class="cls-2" points="4218 6151 4213 6230 4260 6383 4047 6401 4061 6164 4218 6151"/>
        <polygon class="cls-2" points="4602 6113 4588 6357 4389 6374 4446 6228 4452 6129 4602 6113"/>
        <polygon class="cls-2" points="4916 6077 4910 6172 4954 6327 4749 6344 4764 6095 4916 6077"/>
        <polygon class="cls-2" points="5404 6002 5309 6257 5309 6291 5126 6306 5170 6163 5168 6036 5404 6002"/>
        <polygon class="cls-2" points="5750 5944 5729 6102 5759 6253 5577 6269 5580 6253 5509 5985 5750 5944"/>
        <polygon class="cls-2" points="6559 5789 6535 6193 6377 6204 6401 5819 6559 5789"/>
        <polygon class="cls-2" points="6238 5855 6216 6218 6008 6235 6068 6089 6080 5888 6238 5855"/>
        <polygon class="cls-2" points="7127 5634 7106 5983 7033 6150 6644 6182 6660 5922 6722 6102 6895 6087 6930 6069 6953 5683 7127 5634"/>
        <path class="cls-2" d="M2775,6225c52-1,105-2,158-3l-158,3ZM2933,6222l-7,108-70,170-455,38,59-146,10-165h156l-14,218,151-16,12-204,158-3Z"/>
        <path class="cls-2" d="M911,6145l-26,430-176,15,28-466-177-25c-12,210-25,421-25,425v7l-67,168,523-43,78-189,19-304-177-18Z"/>
        <path class="cls-2" d="M4135,4452c55,98,56,319,49,478l88-8c106-287,192-771,192-771,237,127,336,570,363,721l32-3c92-277,9-922,9-922-58,112-177,224-177,224,23-315-117-658-117-658-110,336-406,579-406,579,0,0-84-179-102-213-18-35-74-121-74-121,28,592-473,1219-473,1219,602-252,616-525,616-525Z"/>
        <path class="cls-2" d="M3154,1419c11-18,21-37,30-55,5-9,10-19,15-28,5-10,9-19,14-29,10-18,19-37,30-55s23-35,38-49c4-3,8-7,12-10,5-3,9-5,14-8,9-4,19-8,28-9,3-1,5-1,8-2h7c5-1,9-1,14-1,9-1,18-2,26-2,9-1,18-1,26-2,9,0,17-1,25-1,33-2,63-3,89-3h38c11,1,22,1,31,1,10,0,18,1,26,1,7,0,13,1,18,1,11,1,16,1,16,1h-8c86,2,152,5,152,5,0,0-256-176-489-174-60,36-142,101-230,168,48,48,77,115,77,188,0,22-2,43-7,63Z"/>
        <path class="cls-2" d="M2546,1502c4,3,9,7,14,11,3,2,7,5,10,7,4,3,7,5,11,8,16,11,35,23,58,36,12,6,24,13,37,19,14,7,28,13,43,19,15,7,31,12,47,17,17,5,34,10,52,13s37,5,56,5,39-2,58-7c19-4,38-11,55-21,4-3,8-5,12-8-32,14-67,21-104,21-129,0-237-93-261-216-167,4-302-120-302-120l204,208c2,2,5,4,10,8Z"/>
        <path class="cls-3" d="M7269,6083l-133,264-3515,300-172,452-111-429-1,1-3168,262,153-445s34-622,31-735c-3-112-278-192-278-192,0,0,278-765,645-779,6-1,12-1,18-1,354,0,515,421,515,421l6088-532-72,1413ZM1810,3604c112-483,714-805,812-847,0,0-603-285-812-322-98,65-196,308-196,308-159-126-476-700-476-742s126-561,126-561C2258,278,3206,95,3206,95c0,0,1317-18,2330,827h-322s518,518,546,1079l-210-85s410,1490,2,2846l-227,22-153-248s-12,110-40,267l-3207,279c-100-559-180-1199-115-1478ZM5709,4746c294-1374-75-2741-75-2741l245,91c-29-608-564-1143-564-1143h332C4600,35,3212,0,3212,0c0,0-980,170-2007,1432,0,0-131,562-131,608s521,834,521,834c0,0,101-264,202-334,217,40,685,238,685,238-658,427-758,718-741,1255,8,235,55,641,116,1054l-569,48c-20-42-58-113-115-183-53-65-112-118-175-155-81-49-169-73-260-73h-20c-98,4-197,52-293,144-73,68-145,162-215,279-117,195-186,386-189,394l-21,58,59,17s66,19,130,51c35,17,63,35,82,52,23,20,25,32,25,36,2,102-27,649-31,722l-149,432-1,4c-9,25,1,44,7,53l19,27,33-3,3105-257,156,562,247-598,3491-295,153-305,76-1498-1693,147Z"/>
      </g>
    </g>
  </g>
</svg>