<?xml version="1.0" encoding="utf-8"?>
<!-- Generator: Adobe Illustrator 13.0.0, SVG Export Plug-In . SVG Version: 6.00 Build 14948)  -->
<!DOCTYPE svg PUBLIC "-//W3C//DTD SVG 1.1//EN" "http://www.w3.org/Graphics/SVG/1.1/DTD/svg11.dtd">
<svg version="1.1" id="Ebene_1" xmlns="http://www.w3.org/2000/svg" xmlns:xlink="http://www.w3.org/1999/xlink" x="0px" y="0px"
	 width="338.012px" height="298.918px" viewBox="0 0 338.012 298.918" enable-background="new 0 0 338.012 298.918"
	 xml:space="preserve">
<path fill="#FFFFFF" d="M335.831,86.748c-0.305-5.705-1.979-8.063-5.324-10.496c-3.348-2.435-16.961-11.562-19.623-13.006
	c-2.662-1.446-3.803-3.879-2.206-7.074c1.597-3.194,2.586-7.53,0.38-12.398c-2.206-4.867-4.411-7.757-16.048-15.819
	c-11.638-8.063-19.396-10.801-33.086-17.494s-19.547-8.214-37.421-9.963c-17.873-1.75-32.097,1.445-46.929,4.563
	c-14.831,3.118-48.373,14.223-58.261,17.493c-9.887,3.271-34.683,11.333-41.072,14.756c-6.388,3.422,0.533,10.344,3.955,13.842
	c3.423,3.499,9.052,5.933,20.841,5.705c11.789-0.228,18.254-3.575,25.251-6.465c6.998-2.891,13.462-12.854,14.832-14.832
	c1.369-1.977,2.129-2.206,5.324-3.346c3.194-1.141,5.932-2.054,8.214-3.042c2.282-0.989,1.825,0.685,1.825,0.685
	s-0.684,1.75-2.509,9.127c-1.826,7.378-1.217,13.158-0.913,17.798c0.304,4.639,3.27,4.791,4.944,5.019
	c1.673,0.229,0.38,1.37,0.38,1.37s-1.978,0.456-14.223,7.834c-12.246,7.377-22.209,19.014-22.209,19.014s5.856-13.995,7.682-17.95
	c1.825-3.955,6.845-14.755,7.681-17.797c-6.54,3.118-15.211,10.42-25.327,19.319c-10.116,8.898-14.147,19.775-16.429,26.316
	c-2.281,6.541-1.673,17.189,3.651,27.989c5.324,10.801,20.384,22.59,25.176,26.165c4.791,3.574,9.203,7.605,16.2,6.921
	c6.998-0.684,8.29-6.769,10.192-10.344c1.901-3.575,2.358-10.648,3.118-13.462c4.412-0.152,7.15-3.271,8.823-3.879
	c-2.129,3.042-3.575,11.94-5.704,19.014c-2.13,7.074-2.434,15.821-2.814,26.545c-0.381,10.724,2.053,18.254,1.901,21.829
	c-1.901-1.445-13.614-12.778-21.829-18.863c-8.214-6.085-22.665-17.493-32.02-24.719c-9.356-7.227-21.145-19.927-27.077-28.522
	c-5.933-8.595-7.911-16.885-8.063-25.404c-0.152-8.518,3.879-16.961,8.975-23.578c5.096-6.617,12.778-11.789,19.776-17.341
	c-24.491,5.4-40.388,29.282-48.222,39.931c-7.834,10.648-13.918,26.924-17.189,36.356c-3.27,9.431-2.51,16.504-2.586,25.251
	c-0.076,8.746,4.183,14.527,8.823,18.405c4.64,3.879,14.147,7.303,21.068,9.889c6.922,2.586,33.694,11.104,41.376,13.613
	c7.682,2.511,37.801,10.953,39.246,11.257c1.446,0.305,2.358,0.609,3.119,0.989c0.76,0.38,11.713,9.659,16.581,13.538
	c4.867,3.879,15.516,11.562,22.209,15.821c6.692,4.259,17.112,10.572,25.555,11.408c8.442,0.837,14.071-5.248,22.894-12.625
	c8.823-7.378,14.451-17.874,18.636-27.534c4.183-9.659-1.675-25.023-1.675-25.023s-0.304,2.13-0.987,5.934
	c-0.686,3.803-2.435,7.833-5.705,13.918s-6.161,4.412-8.063,3.119c-1.901-1.294-7.378-9.66-7.378-9.66
	c-5.096-8.595-6.921-12.474-6.921-15.363c0-2.891,1.217-7.987,4.031-13.995c2.813-6.009,11.257-17.113,19.091-23.729
	c7.834-6.618,20.611-13.463,30.195-16.657c9.583-3.195,19.547-2.206,22.817-1.598c3.271,0.609,7.834,3.195,6.921,10.344
	c-0.912,7.149-5.323,12.474-9.127,16.353c18.026-6.692,22.59-17.494,23.502-19.243c0.913-1.749,1.598-5.096,3.575-7.301
	c1.978-2.205,3.879-2.129,8.823-7.834c4.943-5.704,6.465-10.648,8.366-18.102C336.743,102.264,336.135,92.452,335.831,86.748
	L335.831,86.748z M226.687,118.464c2.205,0.228,7.606,1.826,12.093,4.259c4.487,2.434,5.4,3.423,5.856,3.803
	c0.457,0.381,1.141,1.217,0,2.662c-1.141,1.446-4.487,7.302-5.552,11.029c-1.065,3.727-3.498,10.571-3.651,12.32
	c-0.152,1.75-0.912,4.032-1.369,2.358c-0.456-1.673-3.803-10.116-4.943-12.854c-1.141-2.737-4.26-9.05-4.26-12.625
	c0-3.575-0.076-7.682-0.076-7.682S224.48,118.236,226.687,118.464L226.687,118.464z M201.435,119.073
	c-0.913,0.38-3.727,1.064-1.217-1.065c0,0,3.347-2.814,6.236-3.271c2.891-0.456,7.303-0.38,9.279,0.076
	c1.979,0.457,6.617,1.674,7.15,1.978c0.532,0.304,1.369,0.837,1.369,0.837s-3.879-0.305-7.227-0.837
	c-3.346-0.532-6.692-0.609-9.279,0C205.161,117.398,202.348,118.691,201.435,119.073L201.435,119.073z M177.856,206.159
	c-0.685-1.217-6.237-16.732-6.769-19.395c-0.533-2.662-1.826-14.755-0.152-25.86c1.673-11.104,8.518-27,8.518-27
	c3.271,5.705,5.097,11.865,5.097,11.865s1.597,5.476,2.662,2.434c1.064-3.042-0.076-12.777-0.076-12.777s0-0.228,1.293,1.598
	c1.293,1.825,8.367,11.865,11.029,18.786c2.661,6.921,3.042,11.561,3.193,24.263c0.152,12.702-6.009,24.567-7.148,26.24
	c-1.142,1.673-2.055,0.989-1.599-0.304c0.457-1.293,0.457-7.303,0.761-10.877c0.305-3.574-2.054-10.42-2.054-10.42
	s-0.912,4.106-2.053,6.77c-1.141,2.662-6.465,11.256-8.671,14.374C179.682,208.974,178.54,207.376,177.856,206.159L177.856,206.159z
	 M254.827,60.583c-7.909-2.587-12.093-3.119-24.719-15.288c-4.715-4.488-3.498-6.846-8.518-11.029
	c-5.021-4.183-7.227-7.073-14.147-8.29c-6.922-1.217-10.344,1.825-10.953,2.206c-0.607,0.38-1.673,0.608-1.293-0.152
	c0,0,6.998-7.53,13.844-8.214c6.845-0.685,9.507-0.913,14.526,1.521c5.021,2.434,7.074,4.107,8.443,5.4
	c1.369,1.293,2.51,3.499,1.445,4.259c-1.065,0.761-1.445,0.457-1.445,0.457s0.76,4.792,2.586,9.051
	C236.422,44.763,240.909,54.879,254.827,60.583L254.827,60.583z M212.768,48.338c0.228-1.369,0.304-3.118,1.673-6.085
	c0,0,0.609-1.445,1.902-0.532s34.605,23.502,34.605,23.502s-34.302-14.071-35.595-14.603
	C214.061,50.087,212.54,49.707,212.768,48.338L212.768,48.338z M330.431,104.051c-1.027,5.438-3.385,12.892-6.809,16.429
	c-3.422,3.537-6.008,4.715-7.11,5.21c-1.104,0.494-2.472,0.836-3.156-0.989s-2.054-1.141-3.005-0.684
	c-0.951,0.456-11.409,6.35-23.313,6.008c-11.902-0.342-27.305-3.651-38.066-8.479c-10.762-4.83-17.685-7.568-22.171-9.584
	c-4.488-2.015-11.295-3.422-15.706-3.537c-4.412-0.114-11.409,0.571-17.723,4.222c-6.313,3.65-9.621,6.465-12.512,9.849
	c-2.89,3.385-6.465,10.687-7.529,13.273s-4.867,13.12-6.16,20.269c-1.293,7.15-1.674,18.863-1.637,21.487
	c0.038,2.624,0.762,14.907,1.864,18.938c1.104,4.03,5.477,16.732,6.503,18.938c-3.232-4.107-7.872-12.17-9.431-17.912
	c-1.561-5.742-3.461-17.493-3.233-22.665c0.229-5.172,0.913-16.049,1.711-19.699c0.799-3.65,4.374-17.417,6.275-21.676
	c1.902-4.26,7.416-16.239,15.021-21.449c7.606-5.21,11.827-6.997,13.196-6.997c-1.255-1.979-2.319-2.32-2.662-4.297
	c-0.342-1.978-0.304-3.309-0.038-3.309c0.267,0,1.104,1.103,1.749,1.939c0.647,0.837,2.7,0.837,4.298,1.217
	c1.598,0.381,3.232-0.038,3.232-0.038s-1.217-1.445-4.183-3.574c-2.967-2.13-29.207-21.715-29.207-21.715s-1.521-2.244-0.038-1.635
	c1.482,0.608,12.702,7.605,15.288,9.089c2.586,1.483,13.539,7.491,16.809,9.203c3.271,1.711,9.851,4.829,14.071,5.248
	c4.221,0.418,10.191,1.179,13.995,0.646c3.803-0.532,4.486-0.76,4.486-0.76s-2.624-0.875-4.753-2.7
	c-2.13-1.826-3.461-3.233-4.184-5.21c-0.722-1.978-0.912-3.119-0.38-2.701c0.532,0.419,2.092,1.75,4.259,3.005
	c2.168,1.255,9.127,4.715,15.516,6.275c6.39,1.559,17.19,3.574,24.795,3.689c7.606,0.114,16.886-0.495,18.256-1.027
	c-3.043-0.419-19.624,0.076-30.272-2.282c-10.647-2.358-15.516-3.879-17.188-4.906c-1.674-1.027-5.438-4.031-6.275-4.906
	c-0.837-0.874-1.863-2.738-0.342-1.787c1.521,0.951,9.621,4.83,15.972,6.085s14.984,1.026,18.939-0.381
	c3.954-1.407,7.872-4.487,4.106-6.807c-3.765-2.32-7.834-3.575-11.219-4.107c-3.384-0.533-5.021-0.989-5.324-1.027
	s-2.586-1.407,0.875-1.559c3.46-0.152,19.281-1.94,28.94-0.304c9.659,1.635,17.569,4.639,19.966,11.218
	c2.395,6.579,2.775,11.79,3.27,14.337c0.494,2.548,0.875,3.423,1.825,5.895c0,0,1.788,3.385,4.792,0.494
	c3.005-2.89,8.138-8.328,10.534-13.386c2.396-5.058,2.852-5.058,3.043-5.666C330.925,90.779,331.458,98.613,330.431,104.051
	L330.431,104.051z"/>
<path fill="#FFFFFF" d="M9.326,240.097l6.46,0.125l-4.737,30.158c0,0,1.253,0.748,1.639-0.125
	c0.387-0.872,12.32-30.033,12.32-30.033h7.104l-12.591,27.79l3.907,30.657h-6.854l-1.422-22.682c0,0-1.338-0.997-1.725-0.125
	c-0.386,0.872-4.263,8.101-4.263,8.101l-2.33,14.83L0,298.669"/>
<path fill="#FFFFFF" d="M50.808,294.058l7.713-49.102l-3.742-4.734H42.068l-4.923,4.36l-7.686,49.725l3.676,4.361h12.836
	L50.808,294.058L50.808,294.058z M44.646,290.442c0,0-1.697,2.867-2.818,2.867c-1.122,0-3.345-0.125-3.345-0.125
	s-1.791-0.498-1.4-2.991c0.392-2.491,6.664-41.623,6.664-41.623s1.178-2.741,2.798-2.741c1.62,0,3.24,0,3.24,0
	s1.627,0.747,1.412,2.118S44.646,290.442,44.646,290.442L44.646,290.442z"/>
<path fill="#FFFFFF" d="M77.372,273.246l4.326-3.739l3.954-25.174l-3.552-4.361l-16.613,0.25l-9.306,58.446h6.605l4.04-24.924
	l3.508-0.124l1.155,25.173l6.5-0.125L77.372,273.246L77.372,273.246z M75.72,265.519c0,0-1.514,2.493-2.53,2.617
	c-1.017,0.125-5.464-0.124-5.464-0.124l3.551-21.81h5.234c0,0,1.962,0.997,1.93,1.994C78.409,249.193,75.72,265.519,75.72,265.519
	L75.72,265.519z"/>
<polygon fill="#FFFFFF" points="82.117,298.793 88.492,298.669 94.737,258.915 97.943,298.793 105.545,298.793 114.891,240.097 
	108.679,239.973 102.336,280.349 99.189,240.097 91.232,239.973 82.117,298.793 "/>
<polyline fill="#FFFFFF" points="117.905,239.973 125.218,240.222 121.796,290.567 135.188,240.222 144.141,240.346 
	141.649,290.318 154.504,240.222 160.63,240.097 144.325,298.669 134.356,298.669 137.734,250.19 126.256,298.669 115.912,298.669 
	117.866,240.222 "/>
<polygon fill="#FFFFFF" points="165.216,240.097 183.161,240.097 182.279,245.704 171.045,245.829 167.519,265.894 177.612,265.894 
	176.51,272.125 166.934,272 163.52,292.936 174.82,293.185 173.939,298.793 155.995,298.793 165.216,240.097 "/>
<polygon fill="#FFFFFF" points="200.68,256.547 207.678,256.422 209.538,244.583 205.9,239.973 194.436,239.973 189.225,244.583 
	185.518,267.389 189.175,271.875 196.718,272.249 198.247,273.62 195.631,291.066 193.783,293.31 189.92,293.31 188.43,291.689 
	190.003,282.468 183.169,282.343 181.145,294.432 184.966,298.669 196.641,298.918 201.727,294.307 205.57,270.629 201.455,265.894 
	194.476,265.894 192.946,264.522 195.608,247.573 197.628,245.829 200.495,245.829 202.023,247.2 200.68,256.547 "/>
<polygon fill="#FFFFFF" points="214.431,240.097 235.866,240.097 235.09,245.829 227.986,245.829 219.811,298.669 212.583,298.669 
	220.902,245.704 213.55,245.704 214.431,240.097 "/>
<polygon fill="#FFFFFF" points="240.646,240.097 247.999,240.097 243.665,266.891 251.805,266.641 255.85,240.097 262.934,240.222 
	253.628,298.669 246.754,298.793 250.903,272.374 242.784,272.498 238.549,298.669 231.444,298.669 240.646,240.097 "/>
<polygon fill="#FFFFFF" points="268.299,240.097 286.119,240.097 285.237,245.704 274.128,245.829 271.081,266.018 280.695,265.894 
	279.611,272 270.41,271.875 266.852,292.936 277.778,293.185 276.918,298.669 258.953,298.793 268.299,240.097 "/>
<polygon fill="#FFFFFF" points="293.429,240.097 300.408,240.097 291.207,298.669 284.103,298.669 293.429,240.097 "/>
<polygon fill="#FFFFFF" points="296.678,298.669 305.898,239.973 316.079,240.222 314.45,287.079 327.419,240.222 338.012,240.222 
	328.686,298.793 322.35,298.669 329.371,253.182 316.618,298.669 308.891,298.669 310.429,253.182 303.014,298.793 296.678,298.669 
	"/>
</svg>
